<?xml version="1.0"?>
<svg xmlns="http://www.w3.org/2000/svg" id="Layer_1" data-name="Layer 1" viewBox="0 0 30 30"><path d="M5.5,29.75h19A4.756,4.756,0,0,0,29.25,25V5A4.756,4.756,0,0,0,24.5.25H5.5A4.756,4.756,0,0,0,.75,5V25A4.756,4.756,0,0,0,5.5,29.75ZM27.75,25a3.254,3.254,0,0,1-3.25,3.25H5.5A3.254,3.254,0,0,1,2.25,25V8.75h6A6.989,6.989,0,0,0,8.13,9.986a1.752,1.752,0,0,0,1.75,1.75H20.074a1.76,1.76,0,0,0,1.75-1.784,6.8,6.8,0,0,0-.113-1.2H27.75ZM15,7.775a.75.75,0,0,0-.75.75v1.711H9.88a.26.26,0,0,1-.25-.284,5.347,5.347,0,1,1,10.694.034.251.251,0,0,1-.25.25H15.75V8.525A.75.75,0,0,0,15,7.775ZM2.25,5A3.254,3.254,0,0,1,5.5,1.75h19A3.254,3.254,0,0,1,27.75,5V7.25H21.266A6.838,6.838,0,0,0,8.7,7.25H2.25Z"/><path d="M7.039,20.82a.75.75,0,0,0,.75.75H22.211a.75.75,0,0,0,0-1.5H7.789A.75.75,0,0,0,7.039,20.82Z"/><path d="M20.065,23.878H9.935a.75.75,0,0,0,0,1.5h10.13a.75.75,0,0,0,0-1.5Z"/></svg>
